<svg width="248" height="229" viewBox="0 0 248 229" fill="none" xmlns="http://www.w3.org/2000/svg">
<path d="M48.2 182.2C48.2 184.333 41.8667 185.4 29.2 185.4C16.4 185.4 10 184.4 10 182.4V52C10 47.3333 12.4667 45 17.4 45H55.6C90.6667 45 108.2 58.6667 108.2 86C108.2 94.2667 106.6 101.8 103.4 108.6C100.2 115.267 95.6667 120.6 89.8 124.6L115 166.6C113.933 169.8 110.467 173.467 104.6 177.6C96.6 183.333 90 186.2 84.8 186.2C79.6 186.2 75.7333 184.333 73.2 180.6L54.4 136.8H48.2V182.2ZM48.2 80.4V110.4H49.2C61.8667 110.4 68.2 105.133 68.2 94.6C68.2 89.8 66.9333 86.2667 64.4 84C62 81.6 58 80.4 52.4 80.4H48.2ZM237.569 180.6C237.569 183.4 231.302 184.8 218.769 184.8C206.235 184.8 199.435 183.8 198.369 181.8L164.969 119.4V181.6C164.969 184 158.769 185.2 146.369 185.2C134.102 185.2 127.969 184 127.969 181.6V47.8C127.969 45.8 133.235 44.8 143.769 44.8C147.902 44.8 152.702 45.2 158.169 46C163.769 46.6667 167.169 48 168.369 50L200.369 111.6V48.8C200.369 46.2667 206.569 45 218.969 45C231.369 45 237.569 46.2667 237.569 48.8V180.6Z" fill="#FFD84D"/>
<path d="M65.23 222.58C65.23 222.9 64.28 223.06 62.38 223.06C60.46 223.06 59.5 222.91 59.5 222.61V203.05C59.5 202.35 59.87 202 60.61 202H66.34C71.6 202 74.23 204.05 74.23 208.15C74.23 209.39 73.99 210.52 73.51 211.54C73.03 212.54 72.35 213.34 71.47 213.94L75.25 220.24C75.09 220.72 74.57 221.27 73.69 221.89C72.49 222.75 71.5 223.18 70.72 223.18C69.94 223.18 69.36 222.9 68.98 222.34L66.16 215.77H65.23V222.58ZM65.23 207.31V211.81H65.38C67.28 211.81 68.23 211.02 68.23 209.44C68.23 208.72 68.04 208.19 67.66 207.85C67.3 207.49 66.7 207.31 65.86 207.31H65.23ZM88.3853 222.19C87.1253 222.93 85.5053 223.3 83.5253 223.3C81.5453 223.3 79.8753 222.63 78.5153 221.29C77.1553 219.93 76.4753 218.06 76.4753 215.68C76.4753 213.28 77.1253 211.35 78.4253 209.89C79.7453 208.43 81.4053 207.7 83.4053 207.7C85.4053 207.7 86.9453 208.21 88.0253 209.23C89.1253 210.25 89.6753 211.49 89.6753 212.95C89.6753 216.19 87.8153 217.81 84.0953 217.81H82.0253C82.0253 218.41 82.1853 218.83 82.5053 219.07C82.8453 219.29 83.3353 219.4 83.9753 219.4C85.3753 219.4 86.7053 219.08 87.9653 218.44C87.9853 218.42 88.0753 218.56 88.2353 218.86C88.7153 219.72 88.9553 220.45 88.9553 221.05C88.9553 221.63 88.7653 222.01 88.3853 222.19ZM84.6353 213.52C84.6353 212.68 84.2253 212.26 83.4053 212.26C83.0253 212.26 82.6953 212.38 82.4153 212.62C82.1553 212.84 82.0253 213.17 82.0253 213.61V214.54H83.6453C84.3053 214.54 84.6353 214.2 84.6353 213.52ZM96.5552 215.56C96.5552 217.52 97.2952 218.5 98.7752 218.5C99.7352 218.5 100.535 218.31 101.175 217.93C101.475 217.93 101.715 218.45 101.895 219.49C102.095 220.51 102.195 221.21 102.195 221.59C102.195 221.95 102.145 222.19 102.045 222.31C100.985 222.97 99.5352 223.3 97.6952 223.3C95.8552 223.3 94.2852 222.62 92.9852 221.26C91.7052 219.88 91.0652 218.01 91.0652 215.65C91.0652 213.27 91.6952 211.35 92.9552 209.89C94.2352 208.43 95.9252 207.7 98.0252 207.7C100.145 207.7 101.615 208.21 102.435 209.23C102.615 209.45 102.705 209.78 102.705 210.22C102.705 210.64 102.625 211.16 102.465 211.78C102.105 213.06 101.635 213.8 101.055 214C100.975 214.02 100.855 214.03 100.695 214.03C100.555 214.03 100.375 213.91 100.155 213.67C99.3752 212.89 98.7452 212.5 98.2652 212.5C97.8052 212.5 97.4052 212.74 97.0652 213.22C96.7252 213.7 96.5552 214.48 96.5552 215.56ZM111.25 222.82C111.25 223.06 110.41 223.18 108.73 223.18C106.73 223.1 105.73 222.97 105.73 222.79V212.17H104.2C103.8 212.17 103.6 211.48 103.6 210.1C103.6 209.74 103.63 209.3 103.69 208.78C103.77 208.26 103.92 208 104.14 208H105.73V205.36C105.73 204.96 106.57 204.76 108.25 204.76C109.95 204.76 110.8 204.92 110.8 205.24V207.16L110.83 208H113.38C113.72 208 113.89 208.7 113.89 210.1C113.89 211.5 113.72 212.2 113.38 212.2H111.25V222.82ZM137.639 222.34C137.639 222.76 136.699 222.97 134.819 222.97C132.939 222.97 131.919 222.82 131.759 222.52L126.749 213.16V222.49C126.749 222.85 125.819 223.03 123.959 223.03C122.119 223.03 121.199 222.85 121.199 222.49V202.42C121.199 202.12 121.989 201.97 123.569 201.97C124.189 201.97 124.909 202.03 125.729 202.15C126.569 202.25 127.079 202.45 127.259 202.75L132.059 211.99V202.57C132.059 202.19 132.989 202 134.849 202C136.709 202 137.639 202.19 137.639 202.57V222.34ZM151.842 222.19C150.582 222.93 148.962 223.3 146.982 223.3C145.002 223.3 143.332 222.63 141.972 221.29C140.612 219.93 139.932 218.06 139.932 215.68C139.932 213.28 140.582 211.35 141.882 209.89C143.202 208.43 144.862 207.7 146.862 207.7C148.862 207.7 150.402 208.21 151.482 209.23C152.582 210.25 153.132 211.49 153.132 212.95C153.132 216.19 151.272 217.81 147.552 217.81H145.482C145.482 218.41 145.642 218.83 145.962 219.07C146.302 219.29 146.792 219.4 147.432 219.4C148.832 219.4 150.162 219.08 151.422 218.44C151.442 218.42 151.532 218.56 151.692 218.86C152.172 219.72 152.412 220.45 152.412 221.05C152.412 221.63 152.222 222.01 151.842 222.19ZM148.092 213.52C148.092 212.68 147.682 212.26 146.862 212.26C146.482 212.26 146.152 212.38 145.872 212.62C145.612 212.84 145.482 213.17 145.482 213.61V214.54H147.102C147.762 214.54 148.092 214.2 148.092 213.52ZM170.662 208.15C170.662 207.97 171.212 207.88 172.312 207.88C174.792 207.88 176.012 207.96 175.972 208.12L173.032 222.7C172.972 223.02 171.862 223.18 169.702 223.18C167.542 223.18 166.432 223.02 166.372 222.7L165.142 215.98L163.612 222.7C163.552 223 162.402 223.15 160.162 223.15C157.942 223.15 156.802 222.97 156.742 222.61L154.072 208C154.012 207.88 154.872 207.82 156.652 207.82C158.412 207.84 159.292 207.88 159.292 207.94L160.672 218.08L163.162 208.06C163.202 207.94 163.862 207.88 165.142 207.88C166.422 207.88 167.082 207.94 167.122 208.06L169.582 217.96L170.662 208.15ZM178.281 217.6C179.901 218.58 181.181 219.07 182.121 219.07C182.721 219.07 183.021 218.86 183.021 218.44C183.021 218.14 182.501 217.75 181.461 217.27C178.961 216.25 177.711 214.58 177.711 212.26C177.711 210.78 178.251 209.65 179.331 208.87C180.411 208.09 181.701 207.7 183.201 207.7C184.721 207.7 186.001 207.86 187.041 208.18C188.101 208.5 188.631 208.92 188.631 209.44C188.631 209.88 188.411 210.46 187.971 211.18C187.551 211.9 187.261 212.29 187.101 212.35C186.241 211.87 185.311 211.63 184.311 211.63C183.771 211.63 183.501 211.82 183.501 212.2C183.501 212.44 183.601 212.65 183.801 212.83C184.021 212.99 184.411 213.2 184.971 213.46C185.531 213.7 185.991 213.92 186.351 214.12C186.731 214.32 187.151 214.6 187.611 214.96C188.571 215.72 189.051 216.71 189.051 217.93C189.051 219.53 188.521 220.83 187.461 221.83C186.401 222.81 184.801 223.3 182.661 223.3C181.241 223.3 179.951 223.06 178.791 222.58C177.631 222.1 177.051 221.44 177.051 220.6C177.051 220.04 177.181 219.45 177.441 218.83C177.721 218.21 178.001 217.8 178.281 217.6Z" fill="white"/>
</svg>
