<svg width="312" height="42" viewBox="0 0 312 42" fill="none" xmlns="http://www.w3.org/2000/svg">
<path d="M35.5312 29.6875C35.7188 30.7292 35.8958 31.6354 36.0625 32.4062C36.25 33.1562 36.4583 33.7812 36.6875 34.2812C36.9375 34.7812 37.2292 35.1562 37.5625 35.4062C37.9167 35.6354 38.3438 35.75 38.8438 35.75C39.5729 35.75 40.125 35.5417 40.5 35.125C40.875 34.7083 41.0625 34 41.0625 33L44.6875 32.5625C44.6875 32.5833 44.6875 32.6458 44.6875 32.75C44.6875 32.8333 44.6771 32.9375 44.6562 33.0625C44.6562 33.1667 44.6562 33.2708 44.6562 33.375C44.6562 33.4583 44.6562 33.5104 44.6562 33.5312C44.6146 34.9896 44.3854 36.2396 43.9688 37.2812C43.5729 38.3229 43 39.1875 42.25 39.875C41.5 40.5417 40.5938 41.0312 39.5312 41.3438C38.4896 41.6562 37.3021 41.8125 35.9688 41.8125C34.3646 41.8125 32.9688 41.5833 31.7812 41.125C30.5938 40.6667 29.5729 39.9792 28.7188 39.0625C27.8646 38.1458 27.1562 37 26.5938 35.625C26.0312 34.2292 25.5729 32.5938 25.2188 30.7188C24.9062 29.0521 24.5312 27.6667 24.0938 26.5625C23.6771 25.4583 23.2083 24.5417 22.6875 23.8125C22.125 23.3542 21.4479 23.0521 20.6562 22.9062C19.8646 22.7396 18.8854 22.6562 17.7188 22.6562H15L14.9688 33.1875C14.9688 33.6667 15.0104 34.0625 15.0938 34.375C15.1979 34.6667 15.3646 34.8958 15.5938 35.0625C15.8229 35.2083 16.1354 35.3125 16.5312 35.375C16.9271 35.4167 17.4375 35.4375 18.0625 35.4375H19.4375V41C18.6667 41 17.8958 41 17.125 41C16.375 41 15.6042 41 14.8125 41C14.0208 40.9792 13.1771 40.9688 12.2812 40.9688C11.4062 40.9479 10.4583 40.9375 9.4375 40.9375C8.4375 40.9375 7.52083 40.9479 6.6875 40.9688C5.875 40.9688 5.10417 40.9688 4.375 40.9688C3.64583 40.9688 2.9375 40.9792 2.25 41C1.58333 41 0.895833 41 0.1875 41V35.4375H1.1875C2.08333 35.4375 2.77083 35.375 3.25 35.25C3.75 35.1042 4.10417 34.8958 4.3125 34.625C4.54167 34.3542 4.66667 34.0208 4.6875 33.625C4.72917 33.2292 4.75 32.7708 4.75 32.25V8.90625C4.75 8.32292 4.71875 7.83333 4.65625 7.4375C4.61458 7.02083 4.46875 6.6875 4.21875 6.4375C3.98958 6.16667 3.625 5.97917 3.125 5.875C2.625 5.75 1.92708 5.6875 1.03125 5.6875H0.1875V0.125H20.1562C21.6771 0.125 23.1771 0.177083 24.6562 0.28125C26.1562 0.385417 27.5729 0.59375 28.9062 0.90625C30.2604 1.19792 31.5104 1.60417 32.6562 2.125C33.8229 2.64583 34.8229 3.32292 35.6562 4.15625C36.5104 4.98958 37.1771 6 37.6562 7.1875C38.1354 8.375 38.375 9.77083 38.375 11.375C38.375 12.5 38.1875 13.5729 37.8125 14.5938C37.4375 15.5938 36.8854 16.5 36.1562 17.3125C35.4479 18.125 34.5729 18.8229 33.5312 19.4062C32.5104 19.9896 31.3438 20.4271 30.0312 20.7188C30.6562 21.0104 31.25 21.375 31.8125 21.8125C32.3958 22.25 32.9271 22.8125 33.4062 23.5C33.8854 24.1875 34.3021 25.0312 34.6562 26.0312C35.0312 27.0312 35.3229 28.25 35.5312 29.6875ZM14.9688 18.125H19.8125C21.2083 18.125 22.4167 18.0312 23.4375 17.8438C24.4792 17.6354 25.3333 17.2917 26 16.8125C26.6667 16.3333 27.1667 15.7083 27.5 14.9375C27.8333 14.1667 28 13.1979 28 12.0312C28 10.8021 27.8021 9.79167 27.4062 9C27.0104 8.1875 26.4271 7.55208 25.6562 7.09375C24.9062 6.61458 23.9583 6.29167 22.8125 6.125C21.6875 5.9375 20.375 5.84375 18.875 5.84375H14.9688V18.125ZM77.4375 28.0312H56.1875C56.2083 31.0104 56.9375 33.2083 58.375 34.625C59.8125 36.0208 61.7812 36.7188 64.2812 36.7188C66.0521 36.7188 67.5417 36.3125 68.75 35.5C69.9792 34.6875 70.8542 33.7083 71.375 32.5625L78.5 33.125C77.6667 35.9792 75.9479 38.125 73.3438 39.5625C70.7604 41 67.5 41.7188 63.5625 41.7188C60.6875 41.7188 58.1875 41.3438 56.0625 40.5938C53.9375 39.8438 52.1667 38.8333 50.75 37.5625C49.3333 36.2917 48.2708 34.7396 47.5625 32.9062C46.875 31.0729 46.5312 29.0729 46.5312 26.9062C46.5312 24.5938 46.9167 22.5 47.6875 20.625C48.4792 18.75 49.5938 17.1562 51.0312 15.8438C52.4688 14.5312 54.1979 13.5208 56.2188 12.8125C58.2396 12.1042 60.4896 11.75 62.9688 11.75C65.3646 11.75 67.5521 12.0938 69.5312 12.7812C71.5104 13.4479 73.2083 14.4583 74.625 15.8125C76.0417 17.1458 77.1458 18.8125 77.9375 20.8125C78.7292 22.8125 79.125 25.1354 79.125 27.7812L77.4375 28.0312ZM70.1875 23.9688V23.75C70.1875 23.6875 70.1771 23.625 70.1562 23.5625C70.1562 23.4792 70.1562 23.3958 70.1562 23.3125C69.9688 21.1042 69.2812 19.3958 68.0938 18.1875C66.9062 16.9583 65.3438 16.3438 63.4062 16.3438C61.2604 16.3438 59.5729 17.0208 58.3438 18.375C57.1354 19.7292 56.4479 21.5833 56.2812 23.9375H70.1875V23.9688ZM113.406 23.4688H107.969C107.677 21.1562 106.948 19.4583 105.781 18.375C104.635 17.2708 103.135 16.7188 101.281 16.7188C100.094 16.7188 99.0312 16.9688 98.0938 17.4688C97.1771 17.9479 96.3958 18.6354 95.75 19.5312C95.125 20.4271 94.6458 21.5104 94.3125 22.7812C94 24.0312 93.8438 25.4167 93.8438 26.9375C93.8438 28.5 94.0104 29.8542 94.3438 31C94.6979 32.125 95.1979 33.125 95.8438 34C96.5104 34.875 97.3125 35.5521 98.25 36.0312C99.1875 36.4896 100.26 36.7188 101.469 36.7188C103.26 36.7188 104.688 36.2083 105.75 35.1875C106.812 34.1667 107.5 32.8229 107.812 31.1562L114.469 32C114.177 33.5833 113.635 34.9896 112.844 36.2188C112.052 37.4479 111.042 38.4479 109.812 39.2188C108.604 39.9896 107.188 40.5938 105.562 41.0312C103.958 41.4896 102.188 41.7188 100.25 41.7188C97.7917 41.7188 95.5625 41.3646 93.5625 40.6562C91.5625 39.9479 89.8542 38.9792 88.4375 37.75C87.0417 36.5208 85.9583 34.9896 85.1875 33.1562C84.4167 31.3229 84.0312 29.2708 84.0312 27C84.0312 24.8125 84.4167 22.8021 85.1875 20.9688C85.9792 19.1354 87.0417 17.5625 88.375 16.25C89.7083 14.9167 91.2604 13.8854 93.0312 13.1562C94.8229 12.4062 96.7292 12.0312 98.75 12.0312C100.312 12.0312 101.833 12.25 103.312 12.6875C104.812 13.1042 106.156 13.8438 107.344 14.9062L107.719 12.5625C108.094 12.5833 108.521 12.6042 109 12.625C109.5 12.6458 110 12.6667 110.5 12.6875C111.021 12.7083 111.531 12.7396 112.031 12.7812C112.531 12.8021 112.99 12.8333 113.406 12.875V23.4688ZM131.312 4.03125V12.625H138.969V17.625H131.344V30.3125C131.344 31.2292 131.365 32.0312 131.406 32.7188C131.469 33.3854 131.594 33.9479 131.781 34.4062C131.969 34.8438 132.24 35.1771 132.594 35.4062C132.948 35.6354 133.417 35.75 134 35.75C135.396 35.75 136.094 34.7812 136.094 32.8438L139.562 32.4062V33.4062C139.521 34.9479 139.302 36.2292 138.906 37.25C138.531 38.2708 137.979 39.125 137.25 39.8125C136.521 40.4792 135.635 40.9583 134.594 41.25C133.552 41.5625 132.365 41.7188 131.031 41.7188C127.802 41.7188 125.448 40.8646 123.969 39.1562C122.51 37.4271 121.781 35.0417 121.781 32V17.625H117.031V12.9688C117.26 12.9688 117.667 12.9479 118.25 12.9062C118.854 12.8438 119.469 12.7917 120.094 12.75C120.802 12.6875 121.583 12.625 122.438 12.5625C122.438 12.5 122.458 12.3021 122.5 11.9688C122.562 11.6146 122.635 11.1979 122.719 10.7188C122.802 10.2396 122.885 9.71875 122.969 9.15625C123.073 8.59375 123.156 8.0625 123.219 7.5625C123.302 7.0625 123.365 6.625 123.406 6.25C123.469 5.875 123.5 5.625 123.5 5.5L131.312 4.03125ZM151.531 0.125C151.656 0.125 151.906 0.125 152.281 0.125C152.656 0.125 153.094 0.125 153.594 0.125C154.115 0.125 154.656 0.125 155.219 0.125C155.802 0.125 156.344 0.125 156.844 0.125C157.365 0.125 157.812 0.125 158.188 0.125C158.583 0.125 158.844 0.125 158.969 0.125L176.812 30.2188H176.875L176.844 8.3125C176.844 7.72917 176.802 7.27083 176.719 6.9375C176.635 6.58333 176.479 6.3125 176.25 6.125C176.021 5.9375 175.698 5.82292 175.281 5.78125C174.885 5.71875 174.365 5.6875 173.719 5.6875H172.281V0.125C173.844 0.125 175.24 0.135417 176.469 0.15625C177.719 0.177083 178.854 0.1875 179.875 0.1875C180.021 0.1875 180.25 0.1875 180.562 0.1875C180.896 0.1875 181.271 0.1875 181.688 0.1875C182.104 0.1875 182.552 0.1875 183.031 0.1875C183.51 0.166667 183.99 0.15625 184.469 0.15625C185.594 0.15625 186.823 0.145833 188.156 0.125V5.6875H186.562C185.854 5.6875 185.312 5.77083 184.938 5.9375C184.562 6.08333 184.281 6.30208 184.094 6.59375C183.927 6.86458 183.823 7.20833 183.781 7.625C183.76 8.02083 183.75 8.45833 183.75 8.9375C183.75 8.97917 183.75 9.47917 183.75 10.4375C183.75 11.3958 183.75 12.6458 183.75 14.1875C183.75 15.7083 183.75 17.4375 183.75 19.375C183.75 21.3125 183.75 23.2917 183.75 25.3125V41.4375H173.469L154.688 10.125H154.625L154.656 32.6875C154.656 33.3333 154.688 33.8438 154.75 34.2188C154.833 34.5729 154.99 34.8438 155.219 35.0312C155.469 35.2188 155.802 35.3333 156.219 35.375C156.635 35.4167 157.188 35.4375 157.875 35.4375H159.406V41C158.219 41 157.01 40.9896 155.781 40.9688C154.573 40.9479 153.167 40.9375 151.562 40.9375C150.667 40.9375 149.854 40.9479 149.125 40.9688C148.396 40.9688 147.698 40.9688 147.031 40.9688C146.385 40.9688 145.75 40.9792 145.125 41C144.5 41 143.854 41 143.188 41V35.4375H144.812C145.583 35.4375 146.167 35.3646 146.562 35.2188C146.979 35.0729 147.281 34.8542 147.469 34.5625C147.656 34.2708 147.76 33.9062 147.781 33.4688C147.802 33.0104 147.812 32.4792 147.812 31.875V8.84375C147.812 8.21875 147.792 7.70833 147.75 7.3125C147.708 6.89583 147.583 6.57292 147.375 6.34375C147.188 6.09375 146.896 5.92708 146.5 5.84375C146.104 5.73958 145.562 5.6875 144.875 5.6875H143.25V0.125H151.531ZM223.188 28.0312H201.938C201.958 31.0104 202.688 33.2083 204.125 34.625C205.562 36.0208 207.531 36.7188 210.031 36.7188C211.802 36.7188 213.292 36.3125 214.5 35.5C215.729 34.6875 216.604 33.7083 217.125 32.5625L224.25 33.125C223.417 35.9792 221.698 38.125 219.094 39.5625C216.51 41 213.25 41.7188 209.312 41.7188C206.438 41.7188 203.938 41.3438 201.812 40.5938C199.688 39.8438 197.917 38.8333 196.5 37.5625C195.083 36.2917 194.021 34.7396 193.312 32.9062C192.625 31.0729 192.281 29.0729 192.281 26.9062C192.281 24.5938 192.667 22.5 193.438 20.625C194.229 18.75 195.344 17.1562 196.781 15.8438C198.219 14.5312 199.948 13.5208 201.969 12.8125C203.99 12.1042 206.24 11.75 208.719 11.75C211.115 11.75 213.302 12.0938 215.281 12.7812C217.26 13.4479 218.958 14.4583 220.375 15.8125C221.792 17.1458 222.896 18.8125 223.688 20.8125C224.479 22.8125 224.875 25.1354 224.875 27.7812L223.188 28.0312ZM215.938 23.9688V23.75C215.938 23.6875 215.927 23.625 215.906 23.5625C215.906 23.4792 215.906 23.3958 215.906 23.3125C215.719 21.1042 215.031 19.3958 213.844 18.1875C212.656 16.9583 211.094 16.3438 209.156 16.3438C207.01 16.3438 205.323 17.0208 204.094 18.375C202.885 19.7292 202.198 21.5833 202.031 23.9375H215.938V23.9688ZM226.844 12.625C227.094 12.625 227.521 12.6354 228.125 12.6562C228.729 12.6562 229.385 12.6667 230.094 12.6875C230.823 12.6875 231.542 12.6979 232.25 12.7188C232.958 12.7188 233.552 12.7188 234.031 12.7188C235.094 12.7188 236.365 12.7083 237.844 12.6875C239.323 12.6458 240.781 12.625 242.219 12.625V17.6875C241.99 17.6875 241.688 17.6875 241.312 17.6875C240.938 17.6667 240.698 17.6562 240.594 17.6562C239.927 17.6562 239.51 17.8021 239.344 18.0938C239.177 18.3646 239.125 18.75 239.188 19.25C239.271 20.0208 239.427 20.8542 239.656 21.75C239.885 22.625 240.125 23.4688 240.375 24.2812C240.646 25.1562 240.958 26.125 241.312 27.1875C241.667 28.25 242.01 29.2917 242.344 30.3125C242.677 31.3333 242.979 32.2708 243.25 33.125C243.542 33.9792 243.76 34.6458 243.906 35.125C244.427 33.4792 244.906 32 245.344 30.6875C245.531 30.125 245.708 29.5729 245.875 29.0312C246.062 28.4688 246.229 27.9688 246.375 27.5312C246.521 27.0729 246.646 26.6979 246.75 26.4062C246.854 26.0938 246.917 25.9062 246.938 25.8438L251.031 13.6875H260.281L263.812 25.0312C263.854 25.1771 263.927 25.4375 264.031 25.8125C264.156 26.1667 264.292 26.6042 264.438 27.125C264.583 27.625 264.74 28.1771 264.906 28.7812C265.073 29.3854 265.25 29.9896 265.438 30.5938C265.833 32.0312 266.292 33.5938 266.812 35.2812C267.729 32.4479 268.542 29.9062 269.25 27.6562C269.562 26.6979 269.865 25.7604 270.156 24.8438C270.448 23.9271 270.708 23.1042 270.938 22.375C271.167 21.6458 271.354 21.0521 271.5 20.5938C271.646 20.1354 271.729 19.8854 271.75 19.8438C271.875 19.3854 272.01 18.9479 272.156 18.5312C272.031 18.1979 271.729 17.9896 271.25 17.9062C270.792 17.8021 270.042 17.7292 269 17.6875V12.625C270.062 12.6458 271.115 12.6667 272.156 12.6875C273.219 12.7083 274.281 12.7188 275.344 12.7188C276.385 12.7188 277.406 12.7083 278.406 12.6875C279.427 12.6667 280.469 12.6458 281.531 12.625V17.6875C280.781 17.7292 280.198 17.7917 279.781 17.875C279.385 17.9375 279.062 18.1146 278.812 18.4062C278.562 18.6771 278.333 19.0833 278.125 19.625C277.917 20.1667 277.625 20.9167 277.25 21.875L270.188 41.4375H261.281L254.406 20.25L247.375 41.4375H238.438L230.844 20.7812C230.552 20.0729 230.302 19.5208 230.094 19.125C229.885 18.7292 229.635 18.4375 229.344 18.25C229.073 18.0417 228.74 17.9062 228.344 17.8438C227.969 17.7812 227.469 17.7292 226.844 17.6875V12.625ZM310.562 21.2188H305.625C305.292 19.6979 304.5 18.4896 303.25 17.5938C302.021 16.6979 300.385 16.2188 298.344 16.1562C297.51 16.1562 296.792 16.2396 296.188 16.4062C295.604 16.5729 295.125 16.8021 294.75 17.0938C294.375 17.3646 294.094 17.6875 293.906 18.0625C293.74 18.4167 293.656 18.7917 293.656 19.1875C293.656 19.6875 293.812 20.125 294.125 20.5C294.438 20.8542 294.885 21.1875 295.469 21.5C296.052 21.8125 296.76 22.1146 297.594 22.4062C298.448 22.6771 299.417 22.9688 300.5 23.2812C302.333 23.7812 303.948 24.3125 305.344 24.875C306.76 25.4167 307.948 26.0521 308.906 26.7812C309.885 27.5104 310.625 28.3646 311.125 29.3438C311.625 30.3021 311.875 31.4688 311.875 32.8438C311.875 34.4062 311.542 35.75 310.875 36.875C310.208 37.9792 309.323 38.8958 308.219 39.625C307.135 40.3542 305.896 40.8854 304.5 41.2188C303.104 41.5521 301.667 41.7188 300.188 41.7188C298.062 41.7188 296.281 41.4583 294.844 40.9375C293.427 40.3958 292.26 39.5833 291.344 38.5L291.219 40.9688C290.24 40.9688 289.281 40.9375 288.344 40.875C287.427 40.8125 286.49 40.7812 285.531 40.7812V31.9062H291.188C291.271 32.8438 291.521 33.6667 291.938 34.375C292.375 35.0833 292.927 35.6771 293.594 36.1562C294.26 36.6146 295.021 36.9583 295.875 37.1875C296.729 37.4167 297.635 37.5312 298.594 37.5312C300.052 37.5312 301.25 37.2604 302.188 36.7188C303.125 36.1771 303.594 35.4375 303.594 34.5C303.594 33.875 303.333 33.3438 302.812 32.9062C302.312 32.4479 301.635 32.0312 300.781 31.6562C299.948 31.2812 298.979 30.9167 297.875 30.5625C296.792 30.2083 295.667 29.8229 294.5 29.4062C293.104 28.9062 291.844 28.3958 290.719 27.875C289.615 27.3542 288.667 26.7604 287.875 26.0938C287.104 25.4271 286.51 24.6458 286.094 23.75C285.677 22.8542 285.469 21.7812 285.469 20.5312C285.469 19.2396 285.708 18.0729 286.188 17.0312C286.688 15.9688 287.406 15.0729 288.344 14.3438C289.281 13.5938 290.438 13.0208 291.812 12.625C293.188 12.2083 294.75 12 296.5 12C298.333 12 300.042 12.2396 301.625 12.7188C303.208 13.1771 304.458 13.875 305.375 14.8125C305.396 14.6875 305.427 14.5 305.469 14.25C305.531 13.9792 305.594 13.7083 305.656 13.4375C305.74 13.125 305.812 12.7812 305.875 12.4062C306.5 12.4688 307.104 12.5312 307.688 12.5938C308.188 12.6354 308.698 12.6771 309.219 12.7188C309.76 12.7604 310.208 12.8021 310.562 12.8438V21.2188Z" fill="white"/>
</svg>
